<svg xmlns="http://www.w3.org/2000/svg" viewBox="0 0 209 46" width="209" height="46">
	<style>
		tspan { white-space:pre }
		.shp0 { fill: #bf1711 } 
		.shp1 { fill: #fefefe } 
		.shp2 { fill: #ffffff } 
		.shp3 { fill: #6a0300 } 
		.shp4 { fill: #690300 } 
	</style>
	<g id="логотип новый копия 3">
		<path id="Прямоугольник 504" class="shp0" d="M48.06,31.74h2l7.94,-19.74h-2z" />
		<path id="FORMAT" class="shp1" d="M68.94 13.59C69.04 15.9 69.1 18.59 69.1 21.66C69.1 24.91 69.04 27.89 68.94 30.59L70.98 30.59C70.9 28.96 70.86 26.45 70.86 23.04C72.68 23.04 74.39 23.08 76 23.15L76 21.25C74.33 21.32 72.62 21.36 70.86 21.36C70.86 18.82 70.82 16.82 70.73 15.38C73.25 15.38 75.51 15.43 77.5 15.53L77.59 13.59L68.94 13.59ZM98.97 15.57C97.63 14.02 96.07 13.25 94.28 13.25C92.43 13.25 90.79 14.08 89.37 15.75C87.96 17.42 87.25 19.67 87.25 22.52C87.25 25.15 87.92 27.24 89.27 28.78C90.61 30.33 92.17 31.1 93.96 31.1C95.81 31.1 97.45 30.26 98.87 28.57C100.28 26.89 100.99 24.64 100.99 21.83C100.99 19.2 100.32 17.11 98.97 15.57ZM97.56 27.31C96.6 28.63 95.51 29.28 94.28 29.28C92.96 29.28 91.79 28.67 90.77 27.44C89.75 26.2 89.24 24.46 89.24 22.21C89.24 20.04 89.72 18.31 90.68 17.01C91.64 15.71 92.73 15.06 93.96 15.06C95.28 15.06 96.45 15.68 97.47 16.91C98.48 18.14 98.99 19.88 98.99 22.13C98.99 24.27 98.51 26 97.56 27.31ZM121.06 24.19C120.55 23.15 119.89 22.48 119.06 22.19L119.06 22.06C120.91 21.17 121.83 19.64 121.83 17.45C121.83 14.82 120.19 13.51 116.91 13.51C116.24 13.51 115.65 13.52 115.13 13.55C114.62 13.57 114.19 13.59 113.85 13.59L112.27 13.59C112.38 15.9 112.44 18.59 112.44 21.66C112.44 24.91 112.38 27.89 112.27 30.59L114.36 30.59C114.27 28.56 114.22 26.14 114.22 23.33C114.72 23.31 115.28 23.3 115.92 23.3C117 23.3 117.76 23.42 118.18 23.66C118.71 23.95 119.18 24.61 119.6 25.63C119.93 26.44 120.46 28.09 121.18 30.59L123.34 30.59C122.25 27.19 121.49 25.06 121.06 24.19L121.06 24.19ZM115.49 21.61C115.08 21.61 114.65 21.6 114.2 21.58C114.2 18.98 114.17 16.92 114.12 15.4C114.71 15.29 115.43 15.23 116.29 15.23C118.7 15.23 119.91 16.27 119.91 18.34C119.91 20.52 118.44 21.61 115.49 21.61L115.49 21.61ZM149.4 23.36C149.05 18.68 148.88 15.42 148.88 13.59L145.99 13.59C145.99 14.52 145.32 16.91 143.97 20.75C142.62 24.59 141.95 26.92 141.95 27.73L141.83 27.73C141.83 26.92 141.24 24.6 140.04 20.77C138.84 16.94 138.24 14.54 138.24 13.59L135.28 13.59C135.28 15.42 135.03 18.7 134.52 23.4C134.01 28.11 133.76 30.5 133.76 30.59L135.69 30.59C135.69 29.01 135.83 26.4 136.1 22.78C136.37 19.16 136.52 16.75 136.54 15.56L136.66 15.56C136.76 16.03 136.96 16.83 137.24 17.96C137.52 19.09 138.2 21.33 139.27 24.67C140.34 28.01 140.88 29.98 140.88 30.59L142.4 30.59C142.4 30.02 142.97 28.09 144.12 24.77C145.27 21.46 146.22 18.39 146.97 15.56L147.08 15.56C147.1 16.29 147.22 18.49 147.45 22.17C147.68 25.84 147.8 28.65 147.8 30.59L149.91 30.59C149.91 30.44 149.74 28.03 149.4 23.36ZM166.82 15.23L166.94 15.23C166.94 16.81 171.51 30.59 171.51 30.59L173.88 30.59C173.88 30.11 172.96 27.29 171.12 22.11C169.28 16.94 168.36 14.1 168.36 13.59L165.75 13.59C165.75 14.11 164.78 16.99 162.85 22.24C160.92 27.48 159.95 30.27 159.95 30.59L162.22 30.59L166.82 15.23ZM181.81 13.59L181.76 15.45C183.77 15.35 185.32 15.3 186.43 15.3C186.48 17 186.5 19.12 186.5 21.66C186.5 24.64 186.45 27.62 186.36 30.59L188.42 30.59C188.35 27.47 188.31 24.5 188.31 21.66C188.31 19.09 188.32 16.97 188.33 15.3C189.91 15.3 191.44 15.34 192.93 15.43L192.98 13.59L181.81 13.59Z" />
		<path id="Фигура 518" class="shp2" d="M203.04 7C205.82 7 208 9.23 208 11.98C208 14.77 205.82 17 203.02 17C200.21 17 198 14.77 198 11.98C198 9.23 200.21 7 203.02 7L203.04 7ZM203.01 7.66C200.64 7.66 198.83 9.57 198.83 12.03C198.83 14.44 200.64 16.34 203.02 16.34C205.36 16.37 207.17 14.44 207.17 11.98C207.17 9.57 205.36 7.66 203.02 7.66L203.01 7.66ZM205.04 10.14C204.83 10.03 204.22 9.77 203.44 9.77C201.88 9.77 201.12 10.74 201.12 12.03C201.12 13.29 201.93 14.31 203.45 14.31C204.12 14.31 204.74 14.14 205.12 13.89L205.32 14.51C204.74 14.88 203.98 15.01 203.29 15.01C201.37 15.01 200.26 13.71 200.26 12.08C200.26 10.24 201.75 9.07 203.42 9.07C204.28 9.07 205.01 9.31 205.24 9.51L205.04 10.14Z" />
		<g id="ФЗ">
			<g id="Группа 175">
				<path id="Прямоугольник 505" class="shp3" d="M0,6l38.9,9.08v-6l-38.9,-9.08z" />
				<path id="Прямоугольник 505 копия 4" class="shp0" d="M0,6l38.9,9.08v-6l-38.9,-9.08z" />
			</g>
			<g id="Группа 176">
				<path id="Прямоугольник 505 копия 2" class="shp0" d="M0,45l39,-9.06v-5.99l-39,9.06z" />
				<path id="Прямоугольник 505 копия 5" class="shp4" d="M0,45l39,-9.06v-5.99l-39,9.06z" />
			</g>
			<g id="Группа 177">
				<path id="Прямоугольник 505 копия 2" class="shp0" d="M0,25.04l39,-9.06v-5.99l-39,9.06z" />
				<path id="Прямоугольник 505 копия 3" class="shp4" d="M0,25.04l39,-9.06v-5.99l-39,9.06z" />
			</g>
			<path id="Прямоугольник 505 копия" class="shp0" d="M0,26l38.9,9.08v-6l-38.9,-9.08z" />
		</g>
	</g>
</svg>