<svg xmlns="http://www.w3.org/2000/svg" viewBox="0 0 18 37"><defs><style>.cls-1{fill:none;stroke:#fff;}</style></defs><title>Ресурс 1</title><g id="Слой_2" data-name="Слой 2"><g id="Слой_1-2" data-name="Слой 1"><path id="Прямоугольник_скругл._углы_725" data-name="Прямоугольник скругл. углы 725" class="cls-1" d="M.5,18.5v-1h17v1Zm8.16,9.3L5.5,25.2l.84-.7L9.5,27.11l3.16-2.61.84.7-3.16,2.6-.84.7Zm0-18.61L5.5,11.8l.84.7L9.5,9.89l3.16,2.61.84-.7L10.34,9.2,9.5,8.5ZM9,.5A8.51,8.51,0,0,1,17.5,9V28a8.5,8.5,0,0,1-17,0V9A8.51,8.51,0,0,1,9,.5Z"/></g></g></svg>