<svg width="19" height="19" viewBox="0 0 19 19" fill="none" xmlns="http://www.w3.org/2000/svg">
<circle cx="9.5" cy="9.5" r="9.5" fill="#7D3DAF"/>
<path d="M12.1286 14.2894C11.9502 14.2353 11.7802 14.1989 11.6223 14.1333C9.9861 13.4545 8.48025 12.5787 7.28745 11.2362C6.60914 10.4728 6.07823 9.61092 5.62944 8.69881C5.41662 8.26625 5.23727 7.81676 5.05446 7.3702C4.88777 6.96297 5.1333 6.54225 5.39183 6.23542C5.63442 5.94746 5.94659 5.72708 6.28466 5.56467C6.54853 5.43789 6.80882 5.51098 7.00154 5.73464C7.41815 6.21819 7.80082 6.72647 8.1107 7.28697C8.30125 7.63173 8.24897 8.05314 7.90363 8.28776C7.8197 8.34479 7.74321 8.41173 7.66502 8.47614C7.59645 8.53259 7.53191 8.58961 7.48491 8.66604C7.39898 8.80589 7.39488 8.97082 7.45021 9.12286C7.87608 10.2932 8.5939 11.2033 9.77187 11.6934C9.96037 11.7719 10.1497 11.8632 10.3668 11.8379C10.7305 11.7954 10.8483 11.3965 11.1031 11.188C11.3522 10.9844 11.6705 10.9817 11.9389 11.1515C12.2072 11.3213 12.4674 11.5037 12.726 11.6879C12.9799 11.8688 13.2326 12.0458 13.4667 12.252C13.6919 12.4502 13.7694 12.7104 13.6426 12.9794C13.4105 13.4723 13.0728 13.8822 12.5856 14.1439C12.4481 14.2177 12.2838 14.2416 12.1286 14.2894C11.9502 14.2352 12.2838 14.2416 12.1286 14.2894Z" fill="white"/>
<path d="M9.60857 5.00089C11.7488 5.06085 13.5066 6.48118 13.8833 8.59706C13.9475 8.95758 13.9703 9.32619 13.9989 9.6921C14.0109 9.84602 13.9237 9.99225 13.7576 9.99425C13.5861 9.9963 13.5089 9.85276 13.4977 9.6989C13.4757 9.39436 13.4604 9.08846 13.4184 8.78644C13.1969 7.19214 11.9256 5.87315 10.3387 5.59011C10.0999 5.5475 9.8555 5.53631 9.61361 5.51093C9.46069 5.49487 9.26042 5.48561 9.22654 5.29553C9.19811 5.13617 9.33263 5.00927 9.48437 5.00113C9.52563 4.99884 9.56713 5.00071 9.60857 5.00089C11.7488 5.06085 9.56713 5.00071 9.60857 5.00089Z" fill="white"/>
<path d="M12.8611 9.21762C12.8576 9.24435 12.8557 9.30718 12.8401 9.36638C12.7833 9.58125 12.4575 9.60815 12.3825 9.39129C12.3603 9.32693 12.357 9.25372 12.3568 9.18445C12.3561 8.73114 12.2575 8.27831 12.029 7.88391C11.794 7.47856 11.435 7.13779 11.0139 6.93159C10.7593 6.80693 10.484 6.72944 10.2049 6.68326C10.0829 6.66309 9.95968 6.65084 9.83713 6.63379C9.6886 6.61316 9.6093 6.5185 9.61634 6.37214C9.6229 6.23499 9.72313 6.13635 9.87259 6.14479C10.3638 6.17269 10.8382 6.27884 11.2748 6.51006C12.1628 6.9803 12.67 7.72256 12.818 8.71368C12.8247 8.75857 12.8355 8.80306 12.8389 8.84813C12.8473 8.95944 12.8526 9.07086 12.8611 9.21762C12.8576 9.24435 12.8526 9.07086 12.8611 9.21762Z" fill="white"/>
<path d="M11.5299 9.16594C11.3509 9.16916 11.255 9.07005 11.2366 8.90588C11.2237 8.79141 11.2136 8.67542 11.1863 8.56406C11.1325 8.34473 11.0159 8.14147 10.8314 8.00707C10.7443 7.9436 10.6456 7.89735 10.5422 7.86752C10.4109 7.8296 10.2745 7.84003 10.1434 7.80791C10.0011 7.77304 9.92239 7.65781 9.94478 7.52429C9.96512 7.40279 10.0833 7.30795 10.2161 7.31757C11.0459 7.37747 11.6389 7.80645 11.7235 8.78327C11.7295 8.85219 11.7365 8.92505 11.7212 8.99099C11.695 9.10387 11.6115 9.16043 11.5299 9.16594C11.3509 9.16916 11.6115 9.16043 11.5299 9.16594Z" fill="white"/>
</svg>
