<svg width="19" height="19" viewBox="0 0 19 19" fill="none" xmlns="http://www.w3.org/2000/svg">
<path d="M9.50237 0H9.49763C4.25956 0 0 4.26075 0 9.5C0 11.5781 0.66975 13.5043 1.80856 15.0682L0.624625 18.5974L4.27619 17.4301C5.77838 18.4253 7.57031 19 9.50237 19C14.7404 19 19 14.7381 19 9.5C19 4.26194 14.7404 0 9.50237 0Z" fill="#4CAF50"/>
<path d="M15.0302 13.4158C14.801 14.063 13.8913 14.5998 13.1658 14.7565C12.6694 14.8622 12.021 14.9465 9.83841 14.0416C7.04659 12.885 5.24872 10.0481 5.10859 9.86402C4.97441 9.67995 3.98047 8.36183 3.98047 6.99858C3.98047 5.63533 4.67278 4.97152 4.95184 4.68652C5.18103 4.45258 5.55984 4.3457 5.92322 4.3457C6.04078 4.3457 6.14647 4.35164 6.24147 4.35639C6.52053 4.36827 6.66066 4.38489 6.84472 4.82545C7.07391 5.37764 7.63203 6.74089 7.69853 6.88102C7.76622 7.02114 7.83391 7.21114 7.73891 7.3952C7.64984 7.5852 7.57147 7.66952 7.43134 7.83102C7.29122 7.99252 7.15822 8.11602 7.01809 8.28939C6.88984 8.4402 6.74497 8.6017 6.90647 8.88077C7.06797 9.15389 7.62609 10.0647 8.44784 10.7962C9.50828 11.7403 10.368 12.0419 10.6756 12.1701C10.9048 12.2651 11.1779 12.2426 11.3453 12.0645C11.5579 11.8353 11.8203 11.4553 12.0875 11.0812C12.2775 10.8128 12.5174 10.7796 12.7692 10.8746C13.0257 10.9636 14.383 11.6346 14.662 11.7735C14.9411 11.9136 15.1252 11.9801 15.1928 12.0977C15.2593 12.2153 15.2593 12.7675 15.0302 13.4158Z" fill="#FAFAFA"/>
</svg>
